<mxfile host="65bd71144e">
    <diagram id="chSKkKsq1gNMxgawxEx2" name="Page-1">
        <mxGraphModel dx="773" dy="434" grid="1" gridSize="10" guides="1" tooltips="1" connect="1" arrows="1" fold="1" page="1" pageScale="1" pageWidth="1169" pageHeight="827" background="#ffffff" math="1" shadow="0">
            <root>
                <mxCell id="0"/>
                <mxCell id="1" parent="0"/>
                <mxCell id="25" value="" style="group;rotation=45;" vertex="1" connectable="0" parent="1">
                    <mxGeometry x="380" y="153" width="375" height="313.74873734152914" as="geometry"/>
                </mxCell>
                <mxCell id="32" value="" style="endArrow=none;dashed=1;html=1;dashPattern=1 3;strokeWidth=2;strokeColor=#10739e;fontSize=15;fontColor=#000000;fillColor=#b1ddf0;" edge="1" parent="25">
                    <mxGeometry width="50" height="50" relative="1" as="geometry">
                        <mxPoint x="141" y="367" as="sourcePoint"/>
                        <mxPoint x="141" y="170" as="targetPoint"/>
                    </mxGeometry>
                </mxCell>
                <mxCell id="55" value="" style="group" vertex="1" connectable="0" parent="25">
                    <mxGeometry x="14" y="38" width="361" height="275.74873734152914" as="geometry"/>
                </mxCell>
                <mxCell id="9" value="" style="shape=trapezoid;perimeter=trapezoidPerimeter;whiteSpace=wrap;html=1;fixedSize=1;fontSize=15;fillColor=#eeeeee;strokeColor=#36393d;rotation=45;" vertex="1" parent="55">
                    <mxGeometry x="110" y="54" width="120" height="70" as="geometry"/>
                </mxCell>
                <mxCell id="8" value="" style="rounded=0;whiteSpace=wrap;html=1;fontSize=15;fillColor=#eeeeee;strokeColor=#36393d;rotation=45;" vertex="1" parent="55">
                    <mxGeometry x="67" y="106" width="120" height="50" as="geometry"/>
                </mxCell>
                <mxCell id="10" value="" style="rounded=0;whiteSpace=wrap;html=1;fontSize=15;rotation=45;" vertex="1" parent="55">
                    <mxGeometry x="173" y="166" width="30" height="50" as="geometry"/>
                </mxCell>
                <mxCell id="11" value="" style="rounded=0;whiteSpace=wrap;html=1;fontSize=15;rotation=45;" vertex="1" parent="55">
                    <mxGeometry x="52" y="46" width="30" height="50" as="geometry"/>
                </mxCell>
                <mxCell id="12" value="" style="endArrow=classic;html=1;strokeWidth=2;fontSize=15;fontColor=#000000;strokeColor=#000000;" edge="1" parent="55">
                    <mxGeometry width="50" height="50" relative="1" as="geometry">
                        <mxPoint x="255" y="258" as="sourcePoint"/>
                        <mxPoint y="4" as="targetPoint"/>
                    </mxGeometry>
                </mxCell>
                <mxCell id="13" value="" style="endArrow=classic;html=1;strokeColor=#000000;strokeWidth=2;fontSize=15;fontColor=#000000;" edge="1" parent="55">
                    <mxGeometry width="50" height="50" relative="1" as="geometry">
                        <mxPoint x="74" y="185" as="sourcePoint"/>
                        <mxPoint x="258" as="targetPoint"/>
                    </mxGeometry>
                </mxCell>
                <mxCell id="14" value="" style="shape=crossbar;whiteSpace=wrap;html=1;rounded=1;direction=south;fontSize=15;fontColor=#000000;strokeColor=#000000;rotation=45;" vertex="1" parent="55">
                    <mxGeometry x="209" y="198" width="20" height="50" as="geometry"/>
                </mxCell>
                <mxCell id="18" value="2R" style="text;html=1;align=center;verticalAlign=middle;resizable=0;points=[];autosize=1;strokeColor=none;fillColor=none;fontSize=15;fontColor=#000000;rotation=-45;" vertex="1" parent="55">
                    <mxGeometry x="171" y="236" width="40" height="30" as="geometry"/>
                </mxCell>
                <mxCell id="19" value="" style="shape=crossbar;whiteSpace=wrap;html=1;rounded=1;strokeColor=#000000;fontSize=15;fontColor=#000000;rotation=45;" vertex="1" parent="55">
                    <mxGeometry x="29" y="160" width="120" height="20" as="geometry"/>
                </mxCell>
                <mxCell id="20" value="2L" style="text;html=1;align=center;verticalAlign=middle;resizable=0;points=[];autosize=1;strokeColor=none;fillColor=none;fontSize=15;fontColor=#000000;rotation=45;" vertex="1" parent="55">
                    <mxGeometry x="125" y="208" width="40" height="30" as="geometry"/>
                </mxCell>
                <mxCell id="21" value="A" style="text;html=1;align=center;verticalAlign=middle;resizable=0;points=[];autosize=1;strokeColor=none;fillColor=none;fontSize=15;fontColor=#000000;rotation=0;" vertex="1" parent="55">
                    <mxGeometry x="128" y="116" width="30" height="30" as="geometry"/>
                </mxCell>
                <mxCell id="29" value="" style="endArrow=classic;html=1;strokeColor=#10739e;strokeWidth=3;fontSize=15;fontColor=#000000;fillColor=#b1ddf0;" edge="1" parent="55">
                    <mxGeometry width="50" height="50" relative="1" as="geometry">
                        <mxPoint x="125" y="132" as="sourcePoint"/>
                        <mxPoint x="216" y="42" as="targetPoint"/>
                    </mxGeometry>
                </mxCell>
                <mxCell id="23" value="" style="endArrow=oval;html=1;strokeColor=#000000;strokeWidth=2;fontSize=15;fontColor=#000000;startArrow=oval;startFill=1;endFill=1;" edge="1" parent="55">
                    <mxGeometry width="50" height="50" relative="1" as="geometry">
                        <mxPoint x="156" y="69" as="sourcePoint"/>
                        <mxPoint x="126" y="129" as="targetPoint"/>
                    </mxGeometry>
                </mxCell>
                <mxCell id="30" value="$$\ V_A$$" style="text;html=1;align=center;verticalAlign=middle;resizable=0;points=[];autosize=1;strokeColor=none;fillColor=none;fontSize=15;fontColor=#000000;" vertex="1" parent="55">
                    <mxGeometry x="186" y="42" width="90" height="30" as="geometry"/>
                </mxCell>
                <mxCell id="35" value="&lt;font style=&quot;font-size: 10px;&quot;&gt;$$\ X_P^R$$&lt;/font&gt;" style="text;html=1;align=center;verticalAlign=middle;resizable=0;points=[];autosize=1;strokeColor=none;fillColor=none;fontSize=15;fontColor=#000000;rotation=-45;" vertex="1" parent="55">
                    <mxGeometry x="134" y="86" width="80" height="30" as="geometry"/>
                </mxCell>
                <mxCell id="33" value="" style="endArrow=none;dashed=1;html=1;dashPattern=1 3;strokeWidth=2;strokeColor=#000000;fontSize=15;fontColor=#000000;entryX=-0.061;entryY=0.935;entryDx=0;entryDy=0;entryPerimeter=0;exitX=0.719;exitY=0.986;exitDx=0;exitDy=0;exitPerimeter=0;" edge="1" parent="55">
                    <mxGeometry width="50" height="50" relative="1" as="geometry">
                        <mxPoint x="110.69812767608812" y="108.92110606331153" as="sourcePoint"/>
                        <mxPoint x="153.17000000000007" y="67.04999999999995" as="targetPoint"/>
                    </mxGeometry>
                </mxCell>
                <mxCell id="34" value="" style="endArrow=none;dashed=1;html=1;dashPattern=1 3;strokeWidth=2;strokeColor=#000000;fontSize=15;fontColor=#000000;exitX=-0.051;exitY=0.934;exitDx=0;exitDy=0;exitPerimeter=0;" edge="1" parent="55" target="9">
                    <mxGeometry width="50" height="50" relative="1" as="geometry">
                        <mxPoint x="153.47000000000003" y="67.01999999999998" as="sourcePoint"/>
                        <mxPoint x="181.4000000000001" y="69.08999999999992" as="targetPoint"/>
                    </mxGeometry>
                </mxCell>
                <mxCell id="40" value="P" style="text;html=1;align=center;verticalAlign=middle;resizable=0;points=[];autosize=1;strokeColor=none;fillColor=none;fontSize=15;fontColor=#000000;rotation=0;" vertex="1" parent="55">
                    <mxGeometry x="156" y="46" width="30" height="30" as="geometry"/>
                </mxCell>
                <mxCell id="41" value="&lt;font style=&quot;font-size: 10px;&quot;&gt;$$\ Y_P^R$$&lt;/font&gt;" style="text;html=1;align=center;verticalAlign=middle;resizable=0;points=[];autosize=1;strokeColor=none;fillColor=none;fontSize=15;fontColor=#000000;rotation=-45;" vertex="1" parent="55">
                    <mxGeometry x="56" y="106" width="80" height="30" as="geometry"/>
                </mxCell>
                <mxCell id="48" value="" style="verticalLabelPosition=bottom;verticalAlign=top;html=1;shape=mxgraph.basic.arc;startAngle=0.23512270821429113;endAngle=0.3340456587875813;strokeColor=#000000;fontSize=10;fontColor=#000000;horizontal=1;rotation=-30;" vertex="1" parent="55">
                    <mxGeometry x="63" y="80" width="108" height="100" as="geometry"/>
                </mxCell>
                <mxCell id="49" value="$$\theta$$" style="text;html=1;align=center;verticalAlign=middle;resizable=0;points=[];autosize=1;strokeColor=none;fillColor=none;fontSize=10;fontColor=#000000;" vertex="1" parent="55">
                    <mxGeometry x="125" y="104" width="70" height="30" as="geometry"/>
                </mxCell>
                <mxCell id="51" value="" style="verticalLabelPosition=bottom;verticalAlign=top;html=1;shape=mxgraph.basic.arc;startAngle=0.268157315691103;endAngle=0.3252320857343574;strokeColor=#000000;fontSize=10;fontColor=#000000;horizontal=1;rotation=-45;" vertex="1" parent="55">
                    <mxGeometry x="57" y="71" width="99" height="100" as="geometry"/>
                </mxCell>
                <mxCell id="53" value="$$\alpha$$" style="text;html=1;align=center;verticalAlign=middle;resizable=0;points=[];autosize=1;strokeColor=none;fillColor=none;fontSize=10;fontColor=#000000;" vertex="1" parent="55">
                    <mxGeometry x="117" y="74" width="70" height="30" as="geometry"/>
                </mxCell>
                <mxCell id="28" value="&lt;span style=&quot;&quot;&gt;$$\ X_R$$&lt;/span&gt;" style="text;html=1;align=center;verticalAlign=middle;resizable=0;points=[];autosize=1;strokeColor=none;fillColor=none;fontSize=15;fontColor=#000000;" vertex="1" parent="55">
                    <mxGeometry x="229" width="90" height="30" as="geometry"/>
                </mxCell>
                <mxCell id="57" value="" style="curved=1;endArrow=classic;html=1;strokeColor=#000000;strokeWidth=1;fontSize=10;fontColor=#000000;" edge="1" parent="55">
                    <mxGeometry width="50" height="50" relative="1" as="geometry">
                        <mxPoint x="46" y="54" as="sourcePoint"/>
                        <mxPoint x="46" y="24" as="targetPoint"/>
                        <Array as="points">
                            <mxPoint x="26" y="54"/>
                            <mxPoint x="26" y="24"/>
                        </Array>
                    </mxGeometry>
                </mxCell>
                <mxCell id="58" value="" style="curved=1;endArrow=classic;html=1;strokeColor=#000000;strokeWidth=1;fontSize=10;fontColor=#000000;" edge="1" parent="55">
                    <mxGeometry width="50" height="50" relative="1" as="geometry">
                        <mxPoint x="256" y="268" as="sourcePoint"/>
                        <mxPoint x="256" y="238" as="targetPoint"/>
                        <Array as="points">
                            <mxPoint x="236" y="268"/>
                            <mxPoint x="236" y="238"/>
                        </Array>
                    </mxGeometry>
                </mxCell>
                <mxCell id="59" value="$$\omega_R$$" style="text;html=1;align=center;verticalAlign=middle;resizable=0;points=[];autosize=1;strokeColor=none;fillColor=none;fontSize=10;fontColor=#000000;" vertex="1" parent="55">
                    <mxGeometry x="226" y="223" width="90" height="30" as="geometry"/>
                </mxCell>
                <mxCell id="60" value="$$\omega_L$$" style="text;html=1;align=center;verticalAlign=middle;resizable=0;points=[];autosize=1;strokeColor=none;fillColor=none;fontSize=10;fontColor=#000000;" vertex="1" parent="55">
                    <mxGeometry x="6" y="-1" width="90" height="30" as="geometry"/>
                </mxCell>
                <mxCell id="61" value="" style="curved=1;endArrow=none;html=1;strokeWidth=21;fontSize=10;fontColor=#000000;endFill=0;opacity=50;fillColor=#f5f5f5;gradientColor=#b3b3b3;strokeColor=#666666;" edge="1" parent="25">
                    <mxGeometry width="50" height="50" relative="1" as="geometry">
                        <mxPoint x="14" y="357" as="sourcePoint"/>
                        <mxPoint x="39" y="27" as="targetPoint"/>
                        <Array as="points">
                            <mxPoint x="209" y="77"/>
                            <mxPoint x="149" y="17"/>
                        </Array>
                    </mxGeometry>
                </mxCell>
                <mxCell id="2" value="" style="endArrow=classic;html=1;strokeWidth=5;fillColor=#1ba1e2;strokeColor=#006EAF;" edge="1" parent="1">
                    <mxGeometry width="50" height="50" relative="1" as="geometry">
                        <mxPoint x="320" y="520" as="sourcePoint"/>
                        <mxPoint x="320" y="160" as="targetPoint"/>
                    </mxGeometry>
                </mxCell>
                <mxCell id="3" value="" style="endArrow=classic;html=1;strokeWidth=5;fillColor=#1ba1e2;strokeColor=#006EAF;" edge="1" parent="1">
                    <mxGeometry width="50" height="50" relative="1" as="geometry">
                        <mxPoint x="320" y="520" as="sourcePoint"/>
                        <mxPoint x="680" y="520" as="targetPoint"/>
                    </mxGeometry>
                </mxCell>
                <mxCell id="7" value="&lt;font color=&quot;#000000&quot;&gt;&lt;span style=&quot;font-size: 15px;&quot;&gt;&lt;b&gt;$$\ Y_I$$&lt;/b&gt;&lt;br&gt;&lt;/span&gt;&lt;/font&gt;" style="text;html=1;align=center;verticalAlign=middle;resizable=0;points=[];autosize=1;strokeColor=none;fillColor=none;" vertex="1" parent="1">
                    <mxGeometry x="250" y="160" width="90" height="30" as="geometry"/>
                </mxCell>
                <mxCell id="26" value="$$\ Y_R$$" style="text;html=1;align=center;verticalAlign=middle;resizable=0;points=[];autosize=1;strokeColor=none;fillColor=none;fontSize=15;fontColor=#000000;" vertex="1" parent="1">
                    <mxGeometry x="330" y="200" width="90" height="30" as="geometry"/>
                </mxCell>
                <mxCell id="31" value="" style="endArrow=none;dashed=1;html=1;dashPattern=1 3;strokeWidth=2;strokeColor=#10739e;fontSize=15;fontColor=#000000;fillColor=#b1ddf0;" edge="1" parent="1">
                    <mxGeometry width="50" height="50" relative="1" as="geometry">
                        <mxPoint x="320" y="320" as="sourcePoint"/>
                        <mxPoint x="680" y="320" as="targetPoint"/>
                    </mxGeometry>
                </mxCell>
                <mxCell id="45" value="&lt;font style=&quot;font-size: 10px;&quot;&gt;$$\ Y_P^I$$&lt;/font&gt;" style="text;html=1;align=center;verticalAlign=middle;resizable=0;points=[];autosize=1;strokeColor=none;fillColor=none;fontSize=15;fontColor=#000000;rotation=0;" vertex="1" parent="1">
                    <mxGeometry x="260" y="300" width="80" height="30" as="geometry"/>
                </mxCell>
                <mxCell id="46" value="&lt;font style=&quot;font-size: 10px;&quot;&gt;$$\ X_P^I$$&lt;/font&gt;" style="text;html=1;align=center;verticalAlign=middle;resizable=0;points=[];autosize=1;strokeColor=none;fillColor=none;fontSize=15;fontColor=#000000;rotation=0;" vertex="1" parent="1">
                    <mxGeometry x="470" y="520" width="80" height="30" as="geometry"/>
                </mxCell>
                <mxCell id="56" value="&lt;font color=&quot;#000000&quot;&gt;&lt;span style=&quot;font-size: 15px;&quot;&gt;&lt;b&gt;$$\ X_I$$&lt;/b&gt;&lt;br&gt;&lt;/span&gt;&lt;/font&gt;" style="text;html=1;align=center;verticalAlign=middle;resizable=0;points=[];autosize=1;strokeColor=none;fillColor=none;" vertex="1" parent="1">
                    <mxGeometry x="620" y="540" width="90" height="30" as="geometry"/>
                </mxCell>
            </root>
        </mxGraphModel>
    </diagram>
</mxfile>